<svg width="1252" height="677" viewBox="0 0 1252 677" fill="none" xmlns="http://www.w3.org/2000/svg">
<path d="M435 616.8C430.2 618.8 422.8 621.6 412.8 625.2C403.2 628.8 393 632.8 382.2 637.2C371.8 641.6 362.8 646 355.2 650.4C347.6 655.2 343.8 659.6 343.8 663.6C343.8 666.8 346.2 668.4 351 668.4C362.6 668.4 378 660.8 397.2 645.6C416.4 630.4 437 609.6 459 583.2C481 556.8 502 526.8 522 493.2C536.8 468.4 550 442.4 561.6 415.2C573.6 388 583 360.4 589.8 332.4C597 304 600.6 276.4 600.6 249.6C600.6 213.2 593.2 180 578.4 150C564 120 543.4 94.2001 516.6 72.6001C490.2 50.6001 458.4 33.6001 421.2 21.6001C384.4 9.60012 343.8 3.60012 299.4 3.60012C260.2 3.60012 223.8 8.60011 190.2 18.6001C156.6 28.6001 127.2 42.6001 102 60.6001C76.8 78.6001 57.2 99.6001 43.2 123.6C29.2 147.6 22.2 173.6 22.2 201.6C22.2 233.6 31.2 261.8 49.2 286.2C67.6 310.6 92.8 329.8 124.8 343.8C156.8 357.4 193.8 364.2 235.8 364.2C266.2 364.2 293.8 360.2 318.6 352.2C343.8 344.2 363.8 333.4 378.6 319.8C393.8 306.2 401.4 291.4 401.4 275.4C401.4 257.8 392 243.8 373.2 233.4C354.8 222.6 330.6 217.2 300.6 217.2C276.2 217.2 253.2 220.6 231.6 227.4C210 233.8 191 243 174.6 255C158.2 266.6 145.4 280.2 136.2 295.8C127 311 122.4 327.4 122.4 345C122.4 365.4 129 383.4 142.2 399C155.8 414.6 174.6 426.8 198.6 435.6C222.6 444.4 250.4 448.8 282 448.8C320 448.8 353.8 444.2 383.4 435C413.4 425.8 438.8 413.2 459.6 397.2C480.4 381.2 496.2 363 507 342.6C518.2 321.8 523.8 300.2 523.8 277.8C523.8 246.2 513.8 218.4 493.8 194.4C473.8 170.4 446 151.6 410.4 138C375.2 124 334.6 117 288.6 117C248.6 117 211.2 123 176.4 135C142 146.6 111.8 163 85.8 184.2C59.8 205 39.6 229.4 25.2 257.4C10.8 285.4 3.59995 315.8 3.59995 348.6C3.59995 389.4 15.2 425.2 38.4 456C62 486.4 94.8 510.2 136.8 527.4C179.2 544.2 228.4 552.6 284.4 552.6C319.2 552.6 351.4 548.8 381 541.2C411 533.6 436.6 522.8 457.8 508.8C479.4 494.8 494.8 478.6 504 460.2L507.6 461.4C498 480.2 482.2 496.8 460.2 511.2C438.6 525.2 412.6 536.2 382.2 544.2C352.2 552.2 319.6 556.2 284.4 556.2C227.6 556.2 177.8 547.6 135 530.4C92.6 512.8 59.4 488.4 35.4 457.2C11.8 426 -4.92483e-05 389.8 -4.92483e-05 348.6C-4.92483e-05 315.4 7.19995 284.6 21.6 256.2C36.4 227.8 56.8 203 82.8 181.8C109.2 160.2 139.8 143.4 174.6 131.4C209.8 119.4 247.8 113.4 288.6 113.4C336.2 113.4 377.8 120.4 413.4 134.4C449.4 148 477.4 167.2 497.4 192C517.4 216.4 527.4 245 527.4 277.8C527.4 300.6 522 322.6 511.2 343.8C500.4 364.6 484.4 383.2 463.2 399.6C442.4 416 416.8 429 386.4 438.6C356 448.2 321.2 453 282 453C249.2 453 220.6 448.4 196.2 439.2C171.8 430 152.8 417.2 139.2 400.8C125.6 384.4 118.8 365.2 118.8 343.2C118.8 325.2 123.4 308.4 132.6 292.8C142.2 277.2 155.4 263.6 172.2 252C189 240 208.4 230.6 230.4 223.8C252.4 217 275.8 213.6 300.6 213.6C331.8 213.6 357 219.4 376.2 231C395.8 242.2 405.6 257 405.6 275.4C405.6 292.2 397.8 307.6 382.2 321.6C367 335.6 346.4 346.8 320.4 355.2C294.8 363.6 266.4 367.8 235.2 367.8C192.8 367.8 155.2 360.8 122.4 346.8C90 332.4 64.6 312.8 46.2 288C27.8 262.8 18.6 234 18.6 201.6C18.6 173.2 25.8 146.8 40.2 122.4C54.6 97.6001 74.6 76.2001 100.2 58.2001C125.8 39.8001 155.6 25.6001 189.6 15.6001C224 5.20012 261.2 0.000128746 301.2 0.000128746C351.2 0.000128746 396.8 6.80012 438 20.4001C479.2 33.6001 514.8 52.6001 544.8 77.4001C574.8 101.8 598 131 614.4 165C630.8 199 639 236.6 639 277.8C639 298.6 635.8 321.2 629.4 345.6C623 370 613.6 395 601.2 420.6C588.8 445.8 573.6 470.4 555.6 494.4C542.8 510.8 528.4 527.6 512.4 544.8C496.8 562 480.8 578.4 464.4 594C448 609.6 432 623.6 416.4 636C401.2 648.4 387.2 658.2 374.4 665.4C362 672.6 352 676.2 344.4 676.2C337.2 676.2 333.6 673 333.6 666.6C333.6 662.6 336.2 658.4 341.4 654C347 650 354.2 645.8 363 641.4C371.8 637.4 381.2 633.4 391.2 629.4C401.6 625.4 411.6 621.4 421.2 617.4C431.2 613.8 439.6 610.2 446.4 606.6C493.2 582.6 538.8 552 583.2 514.8C628 477.2 668.4 437 704.4 394.2C728.4 365 749.2 335.4 766.8 305.4C784.4 275 798 246.6 807.6 220.2C817.6 193.4 822.6 171 822.6 153C822.6 143.8 821 134.8 817.8 126C814.6 116.8 810.6 110 805.8 105.6L808.2 103.8C814.6 109 819.4 116.8 822.6 127.2C825.8 137.2 827.4 147.8 827.4 159C827.4 178.6 823.2 199.8 814.8 222.6C806.8 245 796.6 267.4 784.2 289.8C772.2 312.2 759.6 332.8 746.4 351.6C733.2 370 721.4 385.2 711 397.2C685 426.4 657 455 627 483C597 511 565.8 536.4 533.4 559.2C501.4 582.4 468.6 601.6 435 616.8ZM696.586 552.6C706.586 552.6 718.386 549.4 731.986 543C745.586 536.6 759.586 528 773.986 517.2C788.386 506 801.786 493.4 814.186 479.4L819.586 473.4H824.386L820.186 478.2C807.386 492.6 793.386 505.8 778.186 517.8C762.986 529.4 748.186 538.6 733.786 545.4C719.386 552.2 706.986 555.6 696.586 555.6C688.586 555.6 682.186 552.8 677.386 547.2C672.586 541.6 670.186 533.8 670.186 523.8C670.186 513.8 673.186 503.4 679.186 492.6C684.786 481.8 692.386 471.4 701.986 461.4C711.986 451 722.986 441.8 734.986 433.8C746.986 425.4 759.386 418.8 772.186 414C784.986 408.8 797.186 406.2 808.786 406.2C813.986 406.2 818.186 407.4 821.386 409.8C824.586 411.8 826.186 414.4 826.186 417.6C826.186 424 822.586 430.8 815.386 438C808.186 444.8 798.786 451.4 787.186 457.8C775.986 463.8 763.786 468.8 750.586 472.8C737.786 476.8 725.586 478.8 713.986 478.8L718.186 474.6C728.986 474.2 740.386 472.2 752.386 468.6C764.386 464.6 775.386 459.8 785.386 454.2C795.786 448.2 804.186 442 810.586 435.6C816.986 429.2 820.186 423.2 820.186 417.6C820.186 412.8 816.986 410.4 810.586 410.4C802.986 410.4 793.786 413.6 782.986 420C772.186 426.4 760.786 434.8 748.786 445.2C737.186 455.2 726.386 466.2 716.386 478.2C706.386 489.8 698.186 501.2 691.786 512.4C685.386 523.2 682.186 532.4 682.186 540C682.186 548.4 686.986 552.6 696.586 552.6ZM803.92 555.6C793.12 555.6 787.72 549.6 787.72 537.6C787.72 518.8 798.32 497.4 819.52 473.4L1213.72 27.0001H1251.52C1245.12 30.2001 1235.32 37.8001 1222.12 49.8001C1209.32 61.4001 1194.32 76.0001 1177.12 93.6001C1160.32 110.8 1142.72 129.8 1124.32 150.6L845.92 466.2C827.52 486.6 814.72 502.4 807.52 513.6C800.32 524.8 796.72 534.4 796.72 542.4C796.72 549.2 799.52 552.6 805.12 552.6C815.52 552.6 829.72 546.2 847.72 533.4C865.72 520.2 884.72 502.2 904.72 479.4L910.12 473.4H914.92L910.72 478.2C888.72 503 868.52 522.2 850.12 535.8C832.12 549 816.72 555.6 803.92 555.6ZM998.541 409.2C1002.14 409.2 1005.94 410.8 1009.94 414C1014.34 417.2 1016.54 422.6 1016.54 430.2C1016.54 439 1013.34 447.8 1006.94 456.6C1000.54 465 992.541 473.2 982.941 481.2C973.741 489.2 964.341 496.8 954.741 504C945.141 511.2 937.141 518.2 930.741 525C924.341 531.8 921.141 538.2 921.141 544.2C921.141 547 922.341 549.2 924.741 550.8C927.141 552 929.141 552.6 930.741 552.6C937.141 552.6 945.941 549.2 957.141 542.4C968.341 535.6 980.341 526.8 993.141 516C1006.34 505.2 1018.54 493.8 1029.74 481.8L1030.34 490.2C1019.14 501.8 1006.94 512.6 993.741 522.6C980.941 532.6 968.741 540.6 957.141 546.6C945.941 552.6 936.941 555.6 930.141 555.6C925.741 555.6 922.141 554.2 919.341 551.4C916.541 548.2 915.141 544 915.141 538.8C915.141 528.8 918.141 519.4 924.141 510.6C930.141 501.8 937.541 493.4 946.341 485.4C955.541 477 964.541 469 973.341 461.4C982.541 453.8 990.141 446.6 996.141 439.8C1002.14 432.6 1005.14 425.6 1005.14 418.8C1005.14 414.4 1002.74 412.2 997.941 412.2C993.141 412.2 986.341 414.8 977.541 420C969.141 424.8 959.741 431.4 949.341 439.8C939.341 448.2 929.741 457.4 920.541 467.4L915.141 473.4H910.341L915.741 467.4C931.741 449.8 947.141 435.8 961.941 425.4C977.141 414.6 989.341 409.2 998.541 409.2ZM1101.74 478.2C1090.14 491.4 1078.94 501.8 1068.14 509.4C1057.34 517 1048.14 520.8 1040.54 520.8C1028.14 520.8 1021.94 513.2 1021.94 498C1021.94 491.6 1024.54 483.6 1029.74 474C1034.94 464 1041.94 453.6 1050.74 442.8C1059.94 431.6 1070.14 421.2 1081.34 411.6H1108.94C1094.14 423.6 1080.74 436 1068.74 448.8C1056.74 461.2 1047.14 472.4 1039.94 482.4C1032.74 492.4 1029.14 499.8 1029.14 504.6C1029.14 509.8 1030.14 513.4 1032.14 515.4C1034.14 517 1037.14 517.8 1041.14 517.8C1047.94 517.8 1056.14 514.4 1065.74 507.6C1075.34 500.4 1085.34 491 1095.74 479.4L1101.14 473.4H1105.94L1101.74 478.2ZM1106.16 552.6C1116.16 552.6 1127.96 549.4 1141.56 543C1155.16 536.6 1169.16 528 1183.56 517.2C1197.96 506 1211.36 493.4 1223.76 479.4L1229.16 473.4H1233.96L1229.76 478.2C1216.96 492.6 1202.96 505.8 1187.76 517.8C1172.56 529.4 1157.76 538.6 1143.36 545.4C1128.96 552.2 1116.56 555.6 1106.16 555.6C1098.16 555.6 1091.76 552.8 1086.96 547.2C1082.16 541.6 1079.76 533.8 1079.76 523.8C1079.76 513.8 1082.76 503.4 1088.76 492.6C1094.36 481.8 1101.96 471.4 1111.56 461.4C1121.56 451 1132.56 441.8 1144.56 433.8C1156.56 425.4 1168.96 418.8 1181.76 414C1194.56 408.8 1206.76 406.2 1218.36 406.2C1223.56 406.2 1227.76 407.4 1230.96 409.8C1234.16 411.8 1235.76 414.4 1235.76 417.6C1235.76 424 1232.16 430.8 1224.96 438C1217.76 444.8 1208.36 451.4 1196.76 457.8C1185.56 463.8 1173.36 468.8 1160.16 472.8C1147.36 476.8 1135.16 478.8 1123.56 478.8L1127.76 474.6C1138.56 474.2 1149.96 472.2 1161.96 468.6C1173.96 464.6 1184.96 459.8 1194.96 454.2C1205.36 448.2 1213.76 442 1220.16 435.6C1226.56 429.2 1229.76 423.2 1229.76 417.6C1229.76 412.8 1226.56 410.4 1220.16 410.4C1212.56 410.4 1203.36 413.6 1192.56 420C1181.76 426.4 1170.36 434.8 1158.36 445.2C1146.76 455.2 1135.96 466.2 1125.96 478.2C1115.96 489.8 1107.76 501.2 1101.36 512.4C1094.96 523.2 1091.76 532.4 1091.76 540C1091.76 548.4 1096.56 552.6 1106.16 552.6Z" fill="black"/>
</svg>
