<svg width="1263" height="714" viewBox="0 0 1263 714" fill="none" xmlns="http://www.w3.org/2000/svg">
<path d="M326.186 702.697H315.664V713.331H326.186V702.697Z" fill="black"/>
<path d="M315.664 702.697H305.142V713.331H315.664V702.697Z" fill="black"/>
<path d="M305.142 702.697H294.62V713.331H305.142V702.697Z" fill="black"/>
<path d="M347.231 692.024H336.709V702.658H347.231V692.024Z" fill="black"/>
<path d="M315.664 692.024H305.142V702.658H315.664V692.024Z" fill="black"/>
<path d="M305.142 692.024H294.62V702.658H305.142V692.024Z" fill="black"/>
<path d="M357.753 681.39H347.23V692.024H357.753V681.39Z" fill="black"/>
<path d="M326.186 681.39H315.664V692.024H326.186V681.39Z" fill="black"/>
<path d="M368.275 670.757H357.753V681.39H368.275V670.757Z" fill="black"/>
<path d="M347.231 670.757H336.709V681.39H347.231V670.757Z" fill="black"/>
<path d="M336.708 670.757H326.186V681.39H336.708V670.757Z" fill="black"/>
<path d="M378.797 660.083H368.275V670.717H378.797V660.083Z" fill="black"/>
<path d="M368.275 660.083H357.753V670.717H368.275V660.083Z" fill="black"/>
<path d="M357.753 660.083H347.23V670.717H357.753V660.083Z" fill="black"/>
<path d="M389.319 649.449H378.797V660.083H389.319V649.449Z" fill="black"/>
<path d="M378.797 649.449H368.275V660.083H378.797V649.449Z" fill="black"/>
<path d="M410.363 638.816H399.841V649.449H410.363V638.816Z" fill="black"/>
<path d="M399.842 638.816H389.319V649.449H399.842V638.816Z" fill="black"/>
<path d="M431.408 628.142H420.886V638.776H431.408V628.142Z" fill="black"/>
<path d="M420.886 628.142H410.364V638.776H420.886V628.142Z" fill="black"/>
<path d="M410.363 628.142H399.841V638.776H410.363V628.142Z" fill="black"/>
<path d="M441.93 617.509H431.408V628.142H441.93V617.509Z" fill="black"/>
<path d="M420.886 617.509H410.364V628.142H420.886V617.509Z" fill="black"/>
<path d="M410.363 617.509H399.841V628.142H410.363V617.509Z" fill="black"/>
<path d="M452.452 606.875H441.93V617.509H452.452V606.875Z" fill="black"/>
<path d="M431.408 606.875H420.886V617.509H431.408V606.875Z" fill="black"/>
<path d="M420.886 606.875H410.364V617.509H420.886V606.875Z" fill="black"/>
<path d="M473.496 596.202H462.974V606.835H473.496V596.202Z" fill="black"/>
<path d="M462.974 596.202H452.452V606.835H462.974V596.202Z" fill="black"/>
<path d="M441.93 596.202H431.408V606.835H441.93V596.202Z" fill="black"/>
<path d="M431.408 596.202H420.886V606.835H431.408V596.202Z" fill="black"/>
<path d="M484.018 585.568H473.496V596.202H484.018V585.568Z" fill="black"/>
<path d="M452.452 585.568H441.93V596.202H452.452V585.568Z" fill="black"/>
<path d="M441.93 585.568H431.408V596.202H441.93V585.568Z" fill="black"/>
<path d="M431.408 585.568H420.886V596.202H431.408V585.568Z" fill="black"/>
<path d="M273.576 585.568H263.053V596.202H273.576V585.568Z" fill="black"/>
<path d="M263.053 585.568H252.531V596.202H263.053V585.568Z" fill="black"/>
<path d="M252.531 585.568H242.009V596.202H252.531V585.568Z" fill="black"/>
<path d="M1157.44 574.934H1146.91V585.568H1157.44V574.934Z" fill="black"/>
<path d="M1146.91 574.934H1136.39V585.568H1146.91V574.934Z" fill="black"/>
<path d="M1104.82 574.934H1094.3V585.568H1104.82V574.934Z" fill="black"/>
<path d="M936.47 574.934H925.948V585.568H936.47V574.934Z" fill="black"/>
<path d="M904.904 574.934H894.382V585.568H904.904V574.934Z" fill="black"/>
<path d="M799.683 574.934H789.16V585.568H799.683V574.934Z" fill="black"/>
<path d="M757.593 574.934H747.071V585.568H757.593V574.934Z" fill="black"/>
<path d="M673.417 574.934H662.895V585.568H673.417V574.934Z" fill="black"/>
<path d="M631.329 574.934H620.806V585.568H631.329V574.934Z" fill="black"/>
<path d="M494.54 574.934H484.018V585.568H494.54V574.934Z" fill="black"/>
<path d="M462.974 574.934H452.452V585.568H462.974V574.934Z" fill="black"/>
<path d="M452.452 574.934H441.93V585.568H452.452V574.934Z" fill="black"/>
<path d="M441.93 574.934H431.408V585.568H441.93V574.934Z" fill="black"/>
<path d="M336.708 574.934H326.186V585.568H336.708V574.934Z" fill="black"/>
<path d="M326.186 574.934H315.664V585.568H326.186V574.934Z" fill="black"/>
<path d="M315.664 574.934H305.142V585.568H315.664V574.934Z" fill="black"/>
<path d="M305.142 574.934H294.62V585.568H305.142V574.934Z" fill="black"/>
<path d="M210.443 574.934H199.92V585.568H210.443V574.934Z" fill="black"/>
<path d="M199.92 574.934H189.398V585.568H199.92V574.934Z" fill="black"/>
<path d="M189.399 574.934H178.876V585.568H189.399V574.934Z" fill="black"/>
<path d="M178.876 574.934H168.354V585.568H178.876V574.934Z" fill="black"/>
<path d="M1167.96 564.261H1157.44V574.895H1167.96V564.261Z" fill="black"/>
<path d="M957.515 564.261H946.992V574.895H957.515V564.261Z" fill="black"/>
<path d="M946.993 564.261H936.471V574.895H946.993V564.261Z" fill="black"/>
<path d="M904.904 564.261H894.382V574.895H904.904V564.261Z" fill="black"/>
<path d="M810.204 564.261H799.682V574.895H810.204V564.261Z" fill="black"/>
<path d="M757.593 564.261H747.071V574.895H757.593V564.261Z" fill="black"/>
<path d="M694.461 564.261H683.939V574.895H694.461V564.261Z" fill="black"/>
<path d="M631.329 564.261H620.806V574.895H631.329V564.261Z" fill="black"/>
<path d="M620.806 564.261H610.284V574.895H620.806V564.261Z" fill="black"/>
<path d="M505.063 564.261H494.541V574.895H505.063V564.261Z" fill="black"/>
<path d="M462.974 564.261H452.452V574.895H462.974V564.261Z" fill="black"/>
<path d="M452.452 564.261H441.93V574.895H452.452V564.261Z" fill="black"/>
<path d="M357.753 564.261H347.23V574.895H357.753V564.261Z" fill="black"/>
<path d="M347.231 564.261H336.709V574.895H347.231V564.261Z" fill="black"/>
<path d="M168.354 564.261H157.832V574.895H168.354V564.261Z" fill="black"/>
<path d="M157.832 564.261H147.31V574.895H157.832V564.261Z" fill="black"/>
<path d="M147.31 564.261H136.788V574.895H147.31V564.261Z" fill="black"/>
<path d="M1178.48 553.627H1167.96V564.261H1178.48V553.627Z" fill="black"/>
<path d="M1094.3 553.627H1083.78V564.261H1094.3V553.627Z" fill="black"/>
<path d="M968.036 553.627H957.514V564.261H968.036V553.627Z" fill="black"/>
<path d="M904.904 553.627H894.382V564.261H904.904V553.627Z" fill="black"/>
<path d="M820.727 553.627H810.205V564.261H820.727V553.627Z" fill="black"/>
<path d="M757.593 553.627H747.071V564.261H757.593V553.627Z" fill="black"/>
<path d="M631.329 553.627H620.806V564.261H631.329V553.627Z" fill="black"/>
<path d="M620.806 553.627H610.284V564.261H620.806V553.627Z" fill="black"/>
<path d="M515.585 553.627H505.062V564.261H515.585V553.627Z" fill="black"/>
<path d="M473.496 553.627H462.974V564.261H473.496V553.627Z" fill="black"/>
<path d="M462.974 553.627H452.452V564.261H462.974V553.627Z" fill="black"/>
<path d="M452.452 553.627H441.93V564.261H452.452V553.627Z" fill="black"/>
<path d="M389.319 553.627H378.797V564.261H389.319V553.627Z" fill="black"/>
<path d="M378.797 553.627H368.275V564.261H378.797V553.627Z" fill="black"/>
<path d="M136.788 553.627H126.266V564.261H136.788V553.627Z" fill="black"/>
<path d="M126.266 553.627H115.744V564.261H126.266V553.627Z" fill="black"/>
<path d="M1199.52 542.993H1189V553.627H1199.52V542.993Z" fill="black"/>
<path d="M1104.82 542.993H1094.3V553.627H1104.82V542.993Z" fill="black"/>
<path d="M1094.3 542.993H1083.78V553.627H1094.3V542.993Z" fill="black"/>
<path d="M978.559 542.993H968.037V553.627H978.559V542.993Z" fill="black"/>
<path d="M915.425 542.993H904.903V553.627H915.425V542.993Z" fill="black"/>
<path d="M904.904 542.993H894.382V553.627H904.904V542.993Z" fill="black"/>
<path d="M831.249 542.993H820.727V553.627H831.249V542.993Z" fill="black"/>
<path d="M768.116 542.993H757.594V553.627H768.116V542.993Z" fill="black"/>
<path d="M757.593 542.993H747.071V553.627H757.593V542.993Z" fill="black"/>
<path d="M726.027 542.993H715.505V553.627H726.027V542.993Z" fill="black"/>
<path d="M631.329 542.993H620.806V553.627H631.329V542.993Z" fill="black"/>
<path d="M620.806 542.993H610.284V553.627H620.806V542.993Z" fill="black"/>
<path d="M526.107 542.993H515.585V553.627H526.107V542.993Z" fill="black"/>
<path d="M484.018 542.993H473.496V553.627H484.018V542.993Z" fill="black"/>
<path d="M473.496 542.993H462.974V553.627H473.496V542.993Z" fill="black"/>
<path d="M462.974 542.993H452.452V553.627H462.974V542.993Z" fill="black"/>
<path d="M399.842 542.993H389.319V553.627H399.842V542.993Z" fill="black"/>
<path d="M105.221 542.993H94.6992V553.627H105.221V542.993Z" fill="black"/>
<path d="M1210.05 532.32H1199.52V542.954H1210.05V532.32Z" fill="black"/>
<path d="M1104.82 532.32H1094.3V542.954H1104.82V532.32Z" fill="black"/>
<path d="M1094.3 532.32H1083.78V542.954H1094.3V532.32Z" fill="black"/>
<path d="M1052.21 532.32H1041.69V542.954H1052.21V532.32Z" fill="black"/>
<path d="M1041.69 532.32H1031.17V542.954H1041.69V532.32Z" fill="black"/>
<path d="M1031.17 532.32H1020.65V542.954H1031.17V532.32Z" fill="black"/>
<path d="M989.081 532.32H978.559V542.954H989.081V532.32Z" fill="black"/>
<path d="M925.948 532.32H915.426V542.954H925.948V532.32Z" fill="black"/>
<path d="M915.425 532.32H904.903V542.954H915.425V532.32Z" fill="black"/>
<path d="M904.904 532.32H894.382V542.954H904.904V532.32Z" fill="black"/>
<path d="M768.116 532.32H757.594V542.954H768.116V532.32Z" fill="black"/>
<path d="M757.593 532.32H747.071V542.954H757.593V532.32Z" fill="black"/>
<path d="M736.55 532.32H726.028V542.954H736.55V532.32Z" fill="black"/>
<path d="M631.329 532.32H620.806V542.954H631.329V532.32Z" fill="black"/>
<path d="M620.806 532.32H610.284V542.954H620.806V532.32Z" fill="black"/>
<path d="M536.629 532.32H526.107V542.954H536.629V532.32Z" fill="black"/>
<path d="M484.018 532.32H473.496V542.954H484.018V532.32Z" fill="black"/>
<path d="M473.496 532.32H462.974V542.954H473.496V532.32Z" fill="black"/>
<path d="M462.974 532.32H452.452V542.954H462.974V532.32Z" fill="black"/>
<path d="M420.886 532.32H410.364V542.954H420.886V532.32Z" fill="black"/>
<path d="M94.6991 532.32H84.177V542.954H94.6991V532.32Z" fill="black"/>
<path d="M84.1772 532.32H73.655V542.954H84.1772V532.32Z" fill="black"/>
<path d="M1220.57 521.686H1210.05V532.32H1220.57V521.686Z" fill="black"/>
<path d="M1115.35 521.686H1104.82V532.32H1115.35V521.686Z" fill="black"/>
<path d="M1104.82 521.686H1094.3V532.32H1104.82V521.686Z" fill="black"/>
<path d="M1094.3 521.686H1083.78V532.32H1094.3V521.686Z" fill="black"/>
<path d="M1073.26 521.686H1062.74V532.32H1073.26V521.686Z" fill="black"/>
<path d="M1031.17 521.686H1020.65V532.32H1031.17V521.686Z" fill="black"/>
<path d="M1010.13 521.686H999.603V532.32H1010.13V521.686Z" fill="black"/>
<path d="M999.604 521.686H989.082V532.32H999.604V521.686Z" fill="black"/>
<path d="M936.47 521.686H925.948V532.32H936.47V521.686Z" fill="black"/>
<path d="M925.948 521.686H915.426V532.32H925.948V521.686Z" fill="black"/>
<path d="M915.425 521.686H904.903V532.32H915.425V521.686Z" fill="black"/>
<path d="M778.638 521.686H768.116V532.32H778.638V521.686Z" fill="black"/>
<path d="M768.116 521.686H757.594V532.32H768.116V521.686Z" fill="black"/>
<path d="M747.072 521.686H736.55V532.32H747.072V521.686Z" fill="black"/>
<path d="M641.85 521.686H631.328V532.32H641.85V521.686Z" fill="black"/>
<path d="M631.329 521.686H620.806V532.32H631.329V521.686Z" fill="black"/>
<path d="M620.806 521.686H610.284V532.32H620.806V521.686Z" fill="black"/>
<path d="M547.151 521.686H536.629V532.32H547.151V521.686Z" fill="black"/>
<path d="M494.54 521.686H484.018V532.32H494.54V521.686Z" fill="black"/>
<path d="M484.018 521.686H473.496V532.32H484.018V521.686Z" fill="black"/>
<path d="M473.496 521.686H462.974V532.32H473.496V521.686Z" fill="black"/>
<path d="M431.408 521.686H420.886V532.32H431.408V521.686Z" fill="black"/>
<path d="M73.6552 521.686H63.1331V532.32H73.6552V521.686Z" fill="black"/>
<path d="M1231.09 511.053H1220.57V521.687H1231.09V511.053Z" fill="black"/>
<path d="M1115.35 511.053H1104.82V521.687H1115.35V511.053Z" fill="black"/>
<path d="M1104.82 511.053H1094.3V521.687H1104.82V511.053Z" fill="black"/>
<path d="M1094.3 511.053H1083.78V521.687H1094.3V511.053Z" fill="black"/>
<path d="M1083.78 511.053H1073.26V521.687H1083.78V511.053Z" fill="black"/>
<path d="M1031.17 511.053H1020.65V521.687H1031.17V511.053Z" fill="black"/>
<path d="M1010.13 511.053H999.603V521.687H1010.13V511.053Z" fill="black"/>
<path d="M936.47 511.053H925.948V521.687H936.47V511.053Z" fill="black"/>
<path d="M925.948 511.053H915.426V521.687H925.948V511.053Z" fill="black"/>
<path d="M915.425 511.053H904.903V521.687H915.425V511.053Z" fill="black"/>
<path d="M862.815 511.053H852.293V521.687H862.815V511.053Z" fill="black"/>
<path d="M778.638 511.053H768.116V521.687H778.638V511.053Z" fill="black"/>
<path d="M768.116 511.053H757.594V521.687H768.116V511.053Z" fill="black"/>
<path d="M757.593 511.053H747.071V521.687H757.593V511.053Z" fill="black"/>
<path d="M641.85 511.053H631.328V521.687H641.85V511.053Z" fill="black"/>
<path d="M631.329 511.053H620.806V521.687H631.329V511.053Z" fill="black"/>
<path d="M620.806 511.053H610.284V521.687H620.806V511.053Z" fill="black"/>
<path d="M557.673 511.053H547.151V521.687H557.673V511.053Z" fill="black"/>
<path d="M505.063 511.053H494.541V521.687H505.063V511.053Z" fill="black"/>
<path d="M494.54 511.053H484.018V521.687H494.54V511.053Z" fill="black"/>
<path d="M484.018 511.053H473.496V521.687H484.018V511.053Z" fill="black"/>
<path d="M473.496 511.053H462.974V521.687H473.496V511.053Z" fill="black"/>
<path d="M441.93 511.053H431.408V521.687H441.93V511.053Z" fill="black"/>
<path d="M63.133 511.053H52.6108V521.687H63.133V511.053Z" fill="black"/>
<path d="M1241.61 500.379H1231.09V511.013H1241.61V500.379Z" fill="black"/>
<path d="M1125.87 500.379H1115.35V511.013H1125.87V500.379Z" fill="black"/>
<path d="M1115.35 500.379H1104.82V511.013H1115.35V500.379Z" fill="black"/>
<path d="M1104.82 500.379H1094.3V511.013H1104.82V500.379Z" fill="black"/>
<path d="M1094.3 500.379H1083.78V511.013H1094.3V500.379Z" fill="black"/>
<path d="M1031.17 500.379H1020.65V511.013H1031.17V500.379Z" fill="black"/>
<path d="M1020.65 500.379H1010.12V511.013H1020.65V500.379Z" fill="black"/>
<path d="M957.515 500.379H946.992V511.013H957.515V500.379Z" fill="black"/>
<path d="M946.993 500.379H936.471V511.013H946.993V500.379Z" fill="black"/>
<path d="M936.47 500.379H925.948V511.013H936.47V500.379Z" fill="black"/>
<path d="M925.948 500.379H915.426V511.013H925.948V500.379Z" fill="black"/>
<path d="M873.338 500.379H862.815V511.013H873.338V500.379Z" fill="black"/>
<path d="M789.161 500.379H778.638V511.013H789.161V500.379Z" fill="black"/>
<path d="M778.638 500.379H768.116V511.013H778.638V500.379Z" fill="black"/>
<path d="M768.116 500.379H757.594V511.013H768.116V500.379Z" fill="black"/>
<path d="M652.372 500.379H641.85V511.013H652.372V500.379Z" fill="black"/>
<path d="M641.85 500.379H631.328V511.013H641.85V500.379Z" fill="black"/>
<path d="M631.329 500.379H620.806V511.013H631.329V500.379Z" fill="black"/>
<path d="M568.195 500.379H557.673V511.013H568.195V500.379Z" fill="black"/>
<path d="M505.063 500.379H494.541V511.013H505.063V500.379Z" fill="black"/>
<path d="M494.54 500.379H484.018V511.013H494.54V500.379Z" fill="black"/>
<path d="M484.018 500.379H473.496V511.013H484.018V500.379Z" fill="black"/>
<path d="M1252.13 489.745H1241.61V500.379H1252.13V489.745Z" fill="black"/>
<path d="M1125.87 489.745H1115.35V500.379H1125.87V489.745Z" fill="black"/>
<path d="M1115.35 489.745H1104.82V500.379H1115.35V489.745Z" fill="black"/>
<path d="M1104.82 489.745H1094.3V500.379H1104.82V489.745Z" fill="black"/>
<path d="M1031.17 489.745H1020.65V500.379H1031.17V489.745Z" fill="black"/>
<path d="M968.036 489.745H957.514V500.379H968.036V489.745Z" fill="black"/>
<path d="M957.515 489.745H946.992V500.379H957.515V489.745Z" fill="black"/>
<path d="M946.993 489.745H936.471V500.379H946.993V489.745Z" fill="black"/>
<path d="M936.47 489.745H925.948V500.379H936.47V489.745Z" fill="black"/>
<path d="M883.86 489.745H873.337V500.379H883.86V489.745Z" fill="black"/>
<path d="M789.161 489.745H778.638V500.379H789.161V489.745Z" fill="black"/>
<path d="M778.638 489.745H768.116V500.379H778.638V489.745Z" fill="black"/>
<path d="M652.372 489.745H641.85V500.379H652.372V489.745Z" fill="black"/>
<path d="M641.85 489.745H631.328V500.379H641.85V489.745Z" fill="black"/>
<path d="M631.329 489.745H620.806V500.379H631.329V489.745Z" fill="black"/>
<path d="M578.718 489.745H568.196V500.379H578.718V489.745Z" fill="black"/>
<path d="M515.585 489.745H505.062V500.379H515.585V489.745Z" fill="black"/>
<path d="M505.063 489.745H494.541V500.379H505.063V489.745Z" fill="black"/>
<path d="M494.54 489.745H484.018V500.379H494.54V489.745Z" fill="black"/>
<path d="M484.018 489.745H473.496V500.379H484.018V489.745Z" fill="black"/>
<path d="M452.452 489.745H441.93V500.379H452.452V489.745Z" fill="black"/>
<path d="M52.6105 489.745H42.0884V500.379H52.6105V489.745Z" fill="black"/>
<path d="M1146.91 479.112H1136.39V489.745H1146.91V479.112Z" fill="black"/>
<path d="M1136.39 479.112H1125.87V489.745H1136.39V479.112Z" fill="black"/>
<path d="M1125.87 479.112H1115.35V489.745H1125.87V479.112Z" fill="black"/>
<path d="M1115.35 479.112H1104.82V489.745H1115.35V479.112Z" fill="black"/>
<path d="M1041.69 479.112H1031.17V489.745H1041.69V479.112Z" fill="black"/>
<path d="M1031.17 479.112H1020.65V489.745H1031.17V479.112Z" fill="black"/>
<path d="M978.559 479.112H968.037V489.745H978.559V479.112Z" fill="black"/>
<path d="M968.036 479.112H957.514V489.745H968.036V479.112Z" fill="black"/>
<path d="M957.515 479.112H946.992V489.745H957.515V479.112Z" fill="black"/>
<path d="M946.993 479.112H936.471V489.745H946.993V479.112Z" fill="black"/>
<path d="M894.382 479.112H883.86V489.745H894.382V479.112Z" fill="black"/>
<path d="M799.683 479.112H789.16V489.745H799.683V479.112Z" fill="black"/>
<path d="M789.161 479.112H778.638V489.745H789.161V479.112Z" fill="black"/>
<path d="M673.417 479.112H662.895V489.745H673.417V479.112Z" fill="black"/>
<path d="M662.895 479.112H652.373V489.745H662.895V479.112Z" fill="black"/>
<path d="M652.372 479.112H641.85V489.745H652.372V479.112Z" fill="black"/>
<path d="M641.85 479.112H631.328V489.745H641.85V479.112Z" fill="black"/>
<path d="M589.24 479.112H578.718V489.745H589.24V479.112Z" fill="black"/>
<path d="M515.585 479.112H505.062V489.745H515.585V479.112Z" fill="black"/>
<path d="M505.063 479.112H494.541V489.745H505.063V479.112Z" fill="black"/>
<path d="M494.54 479.112H484.018V489.745H494.54V479.112Z" fill="black"/>
<path d="M42.0883 479.112H31.5662V489.745H42.0883V479.112Z" fill="black"/>
<path d="M1189 468.438H1178.48V479.072H1189V468.438Z" fill="black"/>
<path d="M1178.48 468.438H1167.96V479.072H1178.48V468.438Z" fill="black"/>
<path d="M1146.91 468.438H1136.39V479.072H1146.91V468.438Z" fill="black"/>
<path d="M1136.39 468.438H1125.87V479.072H1136.39V468.438Z" fill="black"/>
<path d="M1125.87 468.438H1115.35V479.072H1125.87V468.438Z" fill="black"/>
<path d="M1052.21 468.438H1041.69V479.072H1052.21V468.438Z" fill="black"/>
<path d="M1041.69 468.438H1031.17V479.072H1041.69V468.438Z" fill="black"/>
<path d="M989.081 468.438H978.559V479.072H989.081V468.438Z" fill="black"/>
<path d="M978.559 468.438H968.037V479.072H978.559V468.438Z" fill="black"/>
<path d="M968.036 468.438H957.514V479.072H968.036V468.438Z" fill="black"/>
<path d="M957.515 468.438H946.992V479.072H957.515V468.438Z" fill="black"/>
<path d="M810.204 468.438H799.682V479.072H810.204V468.438Z" fill="black"/>
<path d="M799.683 468.438H789.16V479.072H799.683V468.438Z" fill="black"/>
<path d="M715.506 468.438H704.983V479.072H715.506V468.438Z" fill="black"/>
<path d="M704.983 468.438H694.461V479.072H704.983V468.438Z" fill="black"/>
<path d="M673.417 468.438H662.895V479.072H673.417V468.438Z" fill="black"/>
<path d="M662.895 468.438H652.373V479.072H662.895V468.438Z" fill="black"/>
<path d="M652.372 468.438H641.85V479.072H652.372V468.438Z" fill="black"/>
<path d="M641.85 468.438H631.328V479.072H641.85V468.438Z" fill="black"/>
<path d="M526.107 468.438H515.585V479.072H526.107V468.438Z" fill="black"/>
<path d="M515.585 468.438H505.062V479.072H515.585V468.438Z" fill="black"/>
<path d="M505.063 468.438H494.541V479.072H505.063V468.438Z" fill="black"/>
<path d="M494.54 468.438H484.018V479.072H494.54V468.438Z" fill="black"/>
<path d="M326.186 468.438H315.664V479.072H326.186V468.438Z" fill="black"/>
<path d="M315.664 468.438H305.142V479.072H315.664V468.438Z" fill="black"/>
<path d="M305.142 468.438H294.62V479.072H305.142V468.438Z" fill="black"/>
<path d="M294.62 468.438H284.098V479.072H294.62V468.438Z" fill="black"/>
<path d="M284.098 468.438H273.576V479.072H284.098V468.438Z" fill="black"/>
<path d="M273.576 468.438H263.053V479.072H273.576V468.438Z" fill="black"/>
<path d="M242.009 468.438H231.487V479.072H242.009V468.438Z" fill="black"/>
<path d="M231.487 468.438H220.965V479.072H231.487V468.438Z" fill="black"/>
<path d="M220.965 468.438H210.443V479.072H220.965V468.438Z" fill="black"/>
<path d="M210.443 468.438H199.92V479.072H210.443V468.438Z" fill="black"/>
<path d="M199.92 468.438H189.398V479.072H199.92V468.438Z" fill="black"/>
<path d="M31.5666 468.438H21.0444V479.072H31.5666V468.438Z" fill="black"/>
<path d="M1210.05 457.805H1199.52V468.439H1210.05V457.805Z" fill="black"/>
<path d="M1199.52 457.805H1189V468.439H1199.52V457.805Z" fill="black"/>
<path d="M1157.44 457.805H1146.91V468.439H1157.44V457.805Z" fill="black"/>
<path d="M1146.91 457.805H1136.39V468.439H1146.91V457.805Z" fill="black"/>
<path d="M1136.39 457.805H1125.87V468.439H1136.39V457.805Z" fill="black"/>
<path d="M1125.87 457.805H1115.35V468.439H1125.87V457.805Z" fill="black"/>
<path d="M1052.21 457.805H1041.69V468.439H1052.21V457.805Z" fill="black"/>
<path d="M1041.69 457.805H1031.17V468.439H1041.69V457.805Z" fill="black"/>
<path d="M989.081 457.805H978.559V468.439H989.081V457.805Z" fill="black"/>
<path d="M978.559 457.805H968.037V468.439H978.559V457.805Z" fill="black"/>
<path d="M968.036 457.805H957.514V468.439H968.036V457.805Z" fill="black"/>
<path d="M904.904 457.805H894.382V468.439H904.904V457.805Z" fill="black"/>
<path d="M820.727 457.805H810.205V468.439H820.727V457.805Z" fill="black"/>
<path d="M810.204 457.805H799.682V468.439H810.204V457.805Z" fill="black"/>
<path d="M799.683 457.805H789.16V468.439H799.683V457.805Z" fill="black"/>
<path d="M736.55 457.805H726.028V468.439H736.55V457.805Z" fill="black"/>
<path d="M726.027 457.805H715.505V468.439H726.027V457.805Z" fill="black"/>
<path d="M673.417 457.805H662.895V468.439H673.417V457.805Z" fill="black"/>
<path d="M662.895 457.805H652.373V468.439H662.895V457.805Z" fill="black"/>
<path d="M652.372 457.805H641.85V468.439H652.372V457.805Z" fill="black"/>
<path d="M599.761 457.805H589.239V468.439H599.761V457.805Z" fill="black"/>
<path d="M526.107 457.805H515.585V468.439H526.107V457.805Z" fill="black"/>
<path d="M515.585 457.805H505.062V468.439H515.585V457.805Z" fill="black"/>
<path d="M505.063 457.805H494.541V468.439H505.063V457.805Z" fill="black"/>
<path d="M494.54 457.805H484.018V468.439H494.54V457.805Z" fill="black"/>
<path d="M347.231 457.805H336.709V468.439H347.231V457.805Z" fill="black"/>
<path d="M336.708 457.805H326.186V468.439H336.708V457.805Z" fill="black"/>
<path d="M199.92 457.805H189.398V468.439H199.92V457.805Z" fill="black"/>
<path d="M189.399 457.805H178.876V468.439H189.399V457.805Z" fill="black"/>
<path d="M178.876 457.805H168.354V468.439H178.876V457.805Z" fill="black"/>
<path d="M31.5666 457.805H21.0444V468.439H31.5666V457.805Z" fill="black"/>
<path d="M1220.57 447.171H1210.05V457.805H1220.57V447.171Z" fill="black"/>
<path d="M1167.96 447.171H1157.44V457.805H1167.96V447.171Z" fill="black"/>
<path d="M1157.44 447.171H1146.91V457.805H1157.44V447.171Z" fill="black"/>
<path d="M1146.91 447.171H1136.39V457.805H1146.91V447.171Z" fill="black"/>
<path d="M1136.39 447.171H1125.87V457.805H1136.39V447.171Z" fill="black"/>
<path d="M1062.74 447.171H1052.21V457.805H1062.74V447.171Z" fill="black"/>
<path d="M1052.21 447.171H1041.69V457.805H1052.21V447.171Z" fill="black"/>
<path d="M999.604 447.171H989.082V457.805H999.604V447.171Z" fill="black"/>
<path d="M989.081 447.171H978.559V457.805H989.081V447.171Z" fill="black"/>
<path d="M978.559 447.171H968.037V457.805H978.559V447.171Z" fill="black"/>
<path d="M915.425 447.171H904.903V457.805H915.425V447.171Z" fill="black"/>
<path d="M820.727 447.171H810.205V457.805H820.727V447.171Z" fill="black"/>
<path d="M810.204 447.171H799.682V457.805H810.204V447.171Z" fill="black"/>
<path d="M747.072 447.171H736.55V457.805H747.072V447.171Z" fill="black"/>
<path d="M683.939 447.171H673.417V457.805H683.939V447.171Z" fill="black"/>
<path d="M673.417 447.171H662.895V457.805H673.417V447.171Z" fill="black"/>
<path d="M662.895 447.171H652.373V457.805H662.895V447.171Z" fill="black"/>
<path d="M610.284 447.171H599.762V457.805H610.284V447.171Z" fill="black"/>
<path d="M536.629 447.171H526.107V457.805H536.629V447.171Z" fill="black"/>
<path d="M526.107 447.171H515.585V457.805H526.107V447.171Z" fill="black"/>
<path d="M515.585 447.171H505.062V457.805H515.585V447.171Z" fill="black"/>
<path d="M505.063 447.171H494.541V457.805H505.063V447.171Z" fill="black"/>
<path d="M378.797 447.171H368.275V457.805H378.797V447.171Z" fill="black"/>
<path d="M368.275 447.171H357.753V457.805H368.275V447.171Z" fill="black"/>
<path d="M168.354 447.171H157.832V457.805H168.354V447.171Z" fill="black"/>
<path d="M157.832 447.171H147.31V457.805H157.832V447.171Z" fill="black"/>
<path d="M1241.61 436.498H1231.09V447.131H1241.61V436.498Z" fill="black"/>
<path d="M1167.96 436.498H1157.44V447.131H1167.96V436.498Z" fill="black"/>
<path d="M1157.44 436.498H1146.91V447.131H1157.44V436.498Z" fill="black"/>
<path d="M1146.91 436.498H1136.39V447.131H1146.91V436.498Z" fill="black"/>
<path d="M1073.26 436.498H1062.74V447.131H1073.26V436.498Z" fill="black"/>
<path d="M1062.74 436.498H1052.21V447.131H1062.74V436.498Z" fill="black"/>
<path d="M1052.21 436.498H1041.69V447.131H1052.21V436.498Z" fill="black"/>
<path d="M1010.13 436.498H999.603V447.131H1010.13V436.498Z" fill="black"/>
<path d="M999.604 436.498H989.082V447.131H999.604V436.498Z" fill="black"/>
<path d="M989.081 436.498H978.559V447.131H989.081V436.498Z" fill="black"/>
<path d="M925.948 436.498H915.426V447.131H925.948V436.498Z" fill="black"/>
<path d="M831.249 436.498H820.727V447.131H831.249V436.498Z" fill="black"/>
<path d="M820.727 436.498H810.205V447.131H820.727V436.498Z" fill="black"/>
<path d="M768.116 436.498H757.594V447.131H768.116V436.498Z" fill="black"/>
<path d="M704.983 436.498H694.461V447.131H704.983V436.498Z" fill="black"/>
<path d="M694.461 436.498H683.939V447.131H694.461V436.498Z" fill="black"/>
<path d="M683.939 436.498H673.417V447.131H683.939V436.498Z" fill="black"/>
<path d="M673.417 436.498H662.895V447.131H673.417V436.498Z" fill="black"/>
<path d="M620.806 436.498H610.284V447.131H620.806V436.498Z" fill="black"/>
<path d="M536.629 436.498H526.107V447.131H536.629V436.498Z" fill="black"/>
<path d="M526.107 436.498H515.585V447.131H526.107V436.498Z" fill="black"/>
<path d="M515.585 436.498H505.062V447.131H515.585V436.498Z" fill="black"/>
<path d="M505.063 436.498H494.541V447.131H505.063V436.498Z" fill="black"/>
<path d="M399.842 436.498H389.319V447.131H399.842V436.498Z" fill="black"/>
<path d="M389.319 436.498H378.797V447.131H389.319V436.498Z" fill="black"/>
<path d="M147.31 436.498H136.788V447.131H147.31V436.498Z" fill="black"/>
<path d="M21.0443 436.498H10.5222V447.131H21.0443V436.498Z" fill="black"/>
<path d="M1252.13 425.864H1241.61V436.498H1252.13V425.864Z" fill="black"/>
<path d="M1178.48 425.864H1167.96V436.498H1178.48V425.864Z" fill="black"/>
<path d="M1167.96 425.864H1157.44V436.498H1167.96V425.864Z" fill="black"/>
<path d="M1157.44 425.864H1146.91V436.498H1157.44V425.864Z" fill="black"/>
<path d="M1083.78 425.864H1073.26V436.498H1083.78V425.864Z" fill="black"/>
<path d="M1073.26 425.864H1062.74V436.498H1073.26V425.864Z" fill="black"/>
<path d="M1062.74 425.864H1052.21V436.498H1062.74V425.864Z" fill="black"/>
<path d="M1010.13 425.864H999.603V436.498H1010.13V425.864Z" fill="black"/>
<path d="M999.604 425.864H989.082V436.498H999.604V425.864Z" fill="black"/>
<path d="M936.47 425.864H925.948V436.498H936.47V425.864Z" fill="black"/>
<path d="M841.772 425.864H831.25V436.498H841.772V425.864Z" fill="black"/>
<path d="M831.249 425.864H820.727V436.498H831.249V425.864Z" fill="black"/>
<path d="M778.638 425.864H768.116V436.498H778.638V425.864Z" fill="black"/>
<path d="M704.983 425.864H694.461V436.498H704.983V425.864Z" fill="black"/>
<path d="M694.461 425.864H683.939V436.498H694.461V425.864Z" fill="black"/>
<path d="M683.939 425.864H673.417V436.498H683.939V425.864Z" fill="black"/>
<path d="M631.329 425.864H620.806V436.498H631.329V425.864Z" fill="black"/>
<path d="M547.151 425.864H536.629V436.498H547.151V425.864Z" fill="black"/>
<path d="M536.629 425.864H526.107V436.498H536.629V425.864Z" fill="black"/>
<path d="M526.107 425.864H515.585V436.498H526.107V425.864Z" fill="black"/>
<path d="M515.585 425.864H505.062V436.498H515.585V425.864Z" fill="black"/>
<path d="M410.363 425.864H399.841V436.498H410.363V425.864Z" fill="black"/>
<path d="M136.788 425.864H126.266V436.498H136.788V425.864Z" fill="black"/>
<path d="M21.0443 425.864H10.5222V436.498H21.0443V425.864Z" fill="black"/>
<path d="M1262.66 415.23H1252.13V425.864H1262.66V415.23Z" fill="black"/>
<path d="M1199.52 415.23H1189V425.864H1199.52V415.23Z" fill="black"/>
<path d="M1189 415.23H1178.48V425.864H1189V415.23Z" fill="black"/>
<path d="M1178.48 415.23H1167.96V425.864H1178.48V415.23Z" fill="black"/>
<path d="M1167.96 415.23H1157.44V425.864H1167.96V415.23Z" fill="black"/>
<path d="M1094.3 415.23H1083.78V425.864H1094.3V415.23Z" fill="black"/>
<path d="M1083.78 415.23H1073.26V425.864H1083.78V415.23Z" fill="black"/>
<path d="M1073.26 415.23H1062.74V425.864H1073.26V415.23Z" fill="black"/>
<path d="M1010.13 415.23H999.603V425.864H1010.13V415.23Z" fill="black"/>
<path d="M999.604 415.23H989.082V425.864H999.604V415.23Z" fill="black"/>
<path d="M946.993 415.23H936.471V425.864H946.993V415.23Z" fill="black"/>
<path d="M852.293 415.23H841.771V425.864H852.293V415.23Z" fill="black"/>
<path d="M841.772 415.23H831.25V425.864H841.772V415.23Z" fill="black"/>
<path d="M831.249 415.23H820.727V425.864H831.249V415.23Z" fill="black"/>
<path d="M789.161 415.23H778.638V425.864H789.161V415.23Z" fill="black"/>
<path d="M726.027 415.23H715.505V425.864H726.027V415.23Z" fill="black"/>
<path d="M715.506 415.23H704.983V425.864H715.506V415.23Z" fill="black"/>
<path d="M704.983 415.23H694.461V425.864H704.983V415.23Z" fill="black"/>
<path d="M694.461 415.23H683.939V425.864H694.461V415.23Z" fill="black"/>
<path d="M641.85 415.23H631.328V425.864H641.85V415.23Z" fill="black"/>
<path d="M631.329 415.23H620.806V425.864H631.329V415.23Z" fill="black"/>
<path d="M547.151 415.23H536.629V425.864H547.151V415.23Z" fill="black"/>
<path d="M536.629 415.23H526.107V425.864H536.629V415.23Z" fill="black"/>
<path d="M526.107 415.23H515.585V425.864H526.107V415.23Z" fill="black"/>
<path d="M515.585 415.23H505.062V425.864H515.585V415.23Z" fill="black"/>
<path d="M420.886 415.23H410.364V425.864H420.886V415.23Z" fill="black"/>
<path d="M126.266 415.23H115.744V425.864H126.266V415.23Z" fill="black"/>
<path d="M10.5221 415.23H0V425.864H10.5221V415.23Z" fill="black"/>
<path d="M1262.66 404.557H1252.13V415.191H1262.66V404.557Z" fill="black"/>
<path d="M1210.05 404.557H1199.52V415.191H1210.05V404.557Z" fill="black"/>
<path d="M1199.52 404.557H1189V415.191H1199.52V404.557Z" fill="black"/>
<path d="M1189 404.557H1178.48V415.191H1189V404.557Z" fill="black"/>
<path d="M1178.48 404.557H1167.96V415.191H1178.48V404.557Z" fill="black"/>
<path d="M1094.3 404.557H1083.78V415.191H1094.3V404.557Z" fill="black"/>
<path d="M1083.78 404.557H1073.26V415.191H1083.78V404.557Z" fill="black"/>
<path d="M1073.26 404.557H1062.74V415.191H1073.26V404.557Z" fill="black"/>
<path d="M1010.13 404.557H999.603V415.191H1010.13V404.557Z" fill="black"/>
<path d="M957.515 404.557H946.992V415.191H957.515V404.557Z" fill="black"/>
<path d="M862.815 404.557H852.293V415.191H862.815V404.557Z" fill="black"/>
<path d="M852.293 404.557H841.771V415.191H852.293V404.557Z" fill="black"/>
<path d="M841.772 404.557H831.25V415.191H841.772V404.557Z" fill="black"/>
<path d="M789.161 404.557H778.638V415.191H789.161V404.557Z" fill="black"/>
<path d="M736.55 404.557H726.028V415.191H736.55V404.557Z" fill="black"/>
<path d="M726.027 404.557H715.505V415.191H726.027V404.557Z" fill="black"/>
<path d="M715.506 404.557H704.983V415.191H715.506V404.557Z" fill="black"/>
<path d="M704.983 404.557H694.461V415.191H704.983V404.557Z" fill="black"/>
<path d="M641.85 404.557H631.328V415.191H641.85V404.557Z" fill="black"/>
<path d="M557.673 404.557H547.151V415.191H557.673V404.557Z" fill="black"/>
<path d="M547.151 404.557H536.629V415.191H547.151V404.557Z" fill="black"/>
<path d="M536.629 404.557H526.107V415.191H536.629V404.557Z" fill="black"/>
<path d="M526.107 404.557H515.585V415.191H526.107V404.557Z" fill="black"/>
<path d="M515.585 404.557H505.062V415.191H515.585V404.557Z" fill="black"/>
<path d="M431.408 404.557H420.886V415.191H431.408V404.557Z" fill="black"/>
<path d="M126.266 404.557H115.744V415.191H126.266V404.557Z" fill="black"/>
<path d="M10.5221 404.557H0V415.191H10.5221V404.557Z" fill="black"/>
<path d="M1262.66 393.923H1252.13V404.557H1262.66V393.923Z" fill="black"/>
<path d="M1220.57 393.923H1210.05V404.557H1220.57V393.923Z" fill="black"/>
<path d="M1210.05 393.923H1199.52V404.557H1210.05V393.923Z" fill="black"/>
<path d="M1199.52 393.923H1189V404.557H1199.52V393.923Z" fill="black"/>
<path d="M1115.35 393.923H1104.82V404.557H1115.35V393.923Z" fill="black"/>
<path d="M1104.82 393.923H1094.3V404.557H1104.82V393.923Z" fill="black"/>
<path d="M1094.3 393.923H1083.78V404.557H1094.3V393.923Z" fill="black"/>
<path d="M1083.78 393.923H1073.26V404.557H1083.78V393.923Z" fill="black"/>
<path d="M1010.13 393.923H999.603V404.557H1010.13V393.923Z" fill="black"/>
<path d="M978.559 393.923H968.037V404.557H978.559V393.923Z" fill="black"/>
<path d="M968.036 393.923H957.514V404.557H968.036V393.923Z" fill="black"/>
<path d="M862.815 393.923H852.293V404.557H862.815V393.923Z" fill="black"/>
<path d="M852.293 393.923H841.771V404.557H852.293V393.923Z" fill="black"/>
<path d="M747.072 393.923H736.55V404.557H747.072V393.923Z" fill="black"/>
<path d="M736.55 393.923H726.028V404.557H736.55V393.923Z" fill="black"/>
<path d="M726.027 393.923H715.505V404.557H726.027V393.923Z" fill="black"/>
<path d="M652.372 393.923H641.85V404.557H652.372V393.923Z" fill="black"/>
<path d="M641.85 393.923H631.328V404.557H641.85V393.923Z" fill="black"/>
<path d="M557.673 393.923H547.151V404.557H557.673V393.923Z" fill="black"/>
<path d="M547.151 393.923H536.629V404.557H547.151V393.923Z" fill="black"/>
<path d="M536.629 393.923H526.107V404.557H536.629V393.923Z" fill="black"/>
<path d="M526.107 393.923H515.585V404.557H526.107V393.923Z" fill="black"/>
<path d="M441.93 393.923H431.408V404.557H441.93V393.923Z" fill="black"/>
<path d="M115.744 393.923H105.221V404.557H115.744V393.923Z" fill="black"/>
<path d="M10.5221 393.923H0V404.557H10.5221V393.923Z" fill="black"/>
<path d="M1262.66 383.289H1252.13V393.923H1262.66V383.289Z" fill="black"/>
<path d="M1252.13 383.289H1241.61V393.923H1252.13V383.289Z" fill="black"/>
<path d="M1241.61 383.289H1231.09V393.923H1241.61V383.289Z" fill="black"/>
<path d="M1231.09 383.289H1220.57V393.923H1231.09V383.289Z" fill="black"/>
<path d="M1220.57 383.289H1210.05V393.923H1220.57V383.289Z" fill="black"/>
<path d="M999.604 383.289H989.082V393.923H999.604V383.289Z" fill="black"/>
<path d="M989.081 383.289H978.559V393.923H989.081V383.289Z" fill="black"/>
<path d="M873.338 383.289H862.815V393.923H873.338V383.289Z" fill="black"/>
<path d="M862.815 383.289H852.293V393.923H862.815V383.289Z" fill="black"/>
<path d="M789.161 383.289H778.638V393.923H789.161V383.289Z" fill="black"/>
<path d="M778.638 383.289H768.116V393.923H778.638V383.289Z" fill="black"/>
<path d="M768.116 383.289H757.594V393.923H768.116V383.289Z" fill="black"/>
<path d="M757.593 383.289H747.071V393.923H757.593V383.289Z" fill="black"/>
<path d="M747.072 383.289H736.55V393.923H747.072V383.289Z" fill="black"/>
<path d="M662.895 383.289H652.373V393.923H662.895V383.289Z" fill="black"/>
<path d="M652.372 383.289H641.85V393.923H652.372V383.289Z" fill="black"/>
<path d="M557.673 383.289H547.151V393.923H557.673V383.289Z" fill="black"/>
<path d="M547.151 383.289H536.629V393.923H547.151V383.289Z" fill="black"/>
<path d="M536.629 383.289H526.107V393.923H536.629V383.289Z" fill="black"/>
<path d="M526.107 383.289H515.585V393.923H526.107V383.289Z" fill="black"/>
<path d="M252.531 383.289H242.009V393.923H252.531V383.289Z" fill="black"/>
<path d="M242.009 383.289H231.487V393.923H242.009V383.289Z" fill="black"/>
<path d="M231.487 383.289H220.965V393.923H231.487V383.289Z" fill="black"/>
<path d="M220.965 383.289H210.443V393.923H220.965V383.289Z" fill="black"/>
<path d="M210.443 383.289H199.92V393.923H210.443V383.289Z" fill="black"/>
<path d="M199.92 383.289H189.398V393.923H199.92V383.289Z" fill="black"/>
<path d="M189.399 383.289H178.876V393.923H189.399V383.289Z" fill="black"/>
<path d="M178.876 383.289H168.354V393.923H178.876V383.289Z" fill="black"/>
<path d="M115.744 383.289H105.221V393.923H115.744V383.289Z" fill="black"/>
<path d="M10.5221 383.289H0V393.923H10.5221V383.289Z" fill="black"/>
<path d="M883.86 372.616H873.337V383.25H883.86V372.616Z" fill="black"/>
<path d="M873.338 372.616H862.815V383.25H873.338V372.616Z" fill="black"/>
<path d="M662.895 372.616H652.373V383.25H662.895V372.616Z" fill="black"/>
<path d="M557.673 372.616H547.151V383.25H557.673V372.616Z" fill="black"/>
<path d="M547.151 372.616H536.629V383.25H547.151V372.616Z" fill="black"/>
<path d="M536.629 372.616H526.107V383.25H536.629V372.616Z" fill="black"/>
<path d="M526.107 372.616H515.585V383.25H526.107V372.616Z" fill="black"/>
<path d="M452.452 372.616H441.93V383.25H452.452V372.616Z" fill="black"/>
<path d="M284.098 372.616H273.576V383.25H284.098V372.616Z" fill="black"/>
<path d="M273.576 372.616H263.053V383.25H273.576V372.616Z" fill="black"/>
<path d="M157.832 372.616H147.31V383.25H157.832V372.616Z" fill="black"/>
<path d="M147.31 372.616H136.788V383.25H147.31V372.616Z" fill="black"/>
<path d="M136.788 372.616H126.266V383.25H136.788V372.616Z" fill="black"/>
<path d="M115.744 372.616H105.221V383.25H115.744V372.616Z" fill="black"/>
<path d="M10.5221 372.616H0V383.25H10.5221V372.616Z" fill="black"/>
<path d="M894.382 361.982H883.86V372.616H894.382V361.982Z" fill="black"/>
<path d="M883.86 361.982H873.337V372.616H883.86V361.982Z" fill="black"/>
<path d="M873.338 361.982H862.815V372.616H873.338V361.982Z" fill="black"/>
<path d="M673.417 361.982H662.895V372.616H673.417V361.982Z" fill="black"/>
<path d="M557.673 361.982H547.151V372.616H557.673V361.982Z" fill="black"/>
<path d="M547.151 361.982H536.629V372.616H547.151V361.982Z" fill="black"/>
<path d="M536.629 361.982H526.107V372.616H536.629V361.982Z" fill="black"/>
<path d="M526.107 361.982H515.585V372.616H526.107V361.982Z" fill="black"/>
<path d="M315.664 361.982H305.142V372.616H315.664V361.982Z" fill="black"/>
<path d="M305.142 361.982H294.62V372.616H305.142V361.982Z" fill="black"/>
<path d="M126.266 361.982H115.744V372.616H126.266V361.982Z" fill="black"/>
<path d="M115.744 361.982H105.221V372.616H115.744V361.982Z" fill="black"/>
<path d="M10.5221 361.982H0V372.616H10.5221V361.982Z" fill="black"/>
<path d="M894.382 351.349H883.86V361.982H894.382V351.349Z" fill="black"/>
<path d="M883.86 351.349H873.337V361.982H883.86V351.349Z" fill="black"/>
<path d="M673.417 351.349H662.895V361.982H673.417V351.349Z" fill="black"/>
<path d="M568.195 351.349H557.673V361.982H568.195V351.349Z" fill="black"/>
<path d="M557.673 351.349H547.151V361.982H557.673V351.349Z" fill="black"/>
<path d="M547.151 351.349H536.629V361.982H547.151V351.349Z" fill="black"/>
<path d="M536.629 351.349H526.107V361.982H536.629V351.349Z" fill="black"/>
<path d="M462.974 351.349H452.452V361.982H462.974V351.349Z" fill="black"/>
<path d="M326.186 351.349H315.664V361.982H326.186V351.349Z" fill="black"/>
<path d="M115.744 351.349H105.221V361.982H115.744V351.349Z" fill="black"/>
<path d="M105.221 351.349H94.6992V361.982H105.221V351.349Z" fill="black"/>
<path d="M10.5221 351.349H0V361.982H10.5221V351.349Z" fill="black"/>
<path d="M904.904 340.675H894.382V351.309H904.904V340.675Z" fill="black"/>
<path d="M894.382 340.675H883.86V351.309H894.382V340.675Z" fill="black"/>
<path d="M683.939 340.675H673.417V351.309H683.939V340.675Z" fill="black"/>
<path d="M568.195 340.675H557.673V351.309H568.195V340.675Z" fill="black"/>
<path d="M557.673 340.675H547.151V351.309H557.673V340.675Z" fill="black"/>
<path d="M547.151 340.675H536.629V351.309H547.151V340.675Z" fill="black"/>
<path d="M536.629 340.675H526.107V351.309H536.629V340.675Z" fill="black"/>
<path d="M462.974 340.675H452.452V351.309H462.974V340.675Z" fill="black"/>
<path d="M336.708 340.675H326.186V351.309H336.708V340.675Z" fill="black"/>
<path d="M115.744 340.675H105.221V351.309H115.744V340.675Z" fill="black"/>
<path d="M84.1772 340.675H73.655V351.309H84.1772V340.675Z" fill="black"/>
<path d="M10.5221 340.675H0V351.309H10.5221V340.675Z" fill="black"/>
<path d="M915.425 330.041H904.903V340.675H915.425V330.041Z" fill="black"/>
<path d="M904.904 330.041H894.382V340.675H904.904V330.041Z" fill="black"/>
<path d="M894.382 330.041H883.86V340.675H894.382V330.041Z" fill="black"/>
<path d="M683.939 330.041H673.417V340.675H683.939V330.041Z" fill="black"/>
<path d="M568.195 330.041H557.673V340.675H568.195V330.041Z" fill="black"/>
<path d="M557.673 330.041H547.151V340.675H557.673V330.041Z" fill="black"/>
<path d="M547.151 330.041H536.629V340.675H547.151V330.041Z" fill="black"/>
<path d="M536.629 330.041H526.107V340.675H536.629V330.041Z" fill="black"/>
<path d="M473.496 330.041H462.974V340.675H473.496V330.041Z" fill="black"/>
<path d="M347.231 330.041H336.709V340.675H347.231V330.041Z" fill="black"/>
<path d="M115.744 330.041H105.221V340.675H115.744V330.041Z" fill="black"/>
<path d="M73.6552 330.041H63.1331V340.675H73.6552V330.041Z" fill="black"/>
<path d="M10.5221 330.041H0V340.675H10.5221V330.041Z" fill="black"/>
<path d="M925.948 319.408H915.426V330.042H925.948V319.408Z" fill="black"/>
<path d="M915.425 319.408H904.903V330.042H915.425V319.408Z" fill="black"/>
<path d="M904.904 319.408H894.382V330.042H904.904V319.408Z" fill="black"/>
<path d="M694.461 319.408H683.939V330.042H694.461V319.408Z" fill="black"/>
<path d="M568.195 319.408H557.673V330.042H568.195V319.408Z" fill="black"/>
<path d="M557.673 319.408H547.151V330.042H557.673V319.408Z" fill="black"/>
<path d="M547.151 319.408H536.629V330.042H547.151V319.408Z" fill="black"/>
<path d="M536.629 319.408H526.107V330.042H536.629V319.408Z" fill="black"/>
<path d="M473.496 319.408H462.974V330.042H473.496V319.408Z" fill="black"/>
<path d="M357.753 319.408H347.23V330.042H357.753V319.408Z" fill="black"/>
<path d="M63.133 319.408H52.6108V330.042H63.133V319.408Z" fill="black"/>
<path d="M10.5221 319.408H0V330.042H10.5221V319.408Z" fill="black"/>
<path d="M925.948 308.735H915.426V319.368H925.948V308.735Z" fill="black"/>
<path d="M915.425 308.735H904.903V319.368H915.425V308.735Z" fill="black"/>
<path d="M694.461 308.735H683.939V319.368H694.461V308.735Z" fill="black"/>
<path d="M568.195 308.735H557.673V319.368H568.195V308.735Z" fill="black"/>
<path d="M557.673 308.735H547.151V319.368H557.673V308.735Z" fill="black"/>
<path d="M547.151 308.735H536.629V319.368H547.151V308.735Z" fill="black"/>
<path d="M536.629 308.735H526.107V319.368H536.629V308.735Z" fill="black"/>
<path d="M473.496 308.735H462.974V319.368H473.496V308.735Z" fill="black"/>
<path d="M357.753 308.735H347.23V319.368H357.753V308.735Z" fill="black"/>
<path d="M126.266 308.735H115.744V319.368H126.266V308.735Z" fill="black"/>
<path d="M10.5221 308.735H0V319.368H10.5221V308.735Z" fill="black"/>
<path d="M936.47 298.101H925.948V308.735H936.47V298.101Z" fill="black"/>
<path d="M925.948 298.101H915.426V308.735H925.948V298.101Z" fill="black"/>
<path d="M704.983 298.101H694.461V308.735H704.983V298.101Z" fill="black"/>
<path d="M568.195 298.101H557.673V308.735H568.195V298.101Z" fill="black"/>
<path d="M557.673 298.101H547.151V308.735H557.673V298.101Z" fill="black"/>
<path d="M547.151 298.101H536.629V308.735H547.151V298.101Z" fill="black"/>
<path d="M536.629 298.101H526.107V308.735H536.629V298.101Z" fill="black"/>
<path d="M473.496 298.101H462.974V308.735H473.496V298.101Z" fill="black"/>
<path d="M368.275 298.101H357.753V308.735H368.275V298.101Z" fill="black"/>
<path d="M52.6105 298.101H42.0884V308.735H52.6105V298.101Z" fill="black"/>
<path d="M21.0443 298.101H10.5222V308.735H21.0443V298.101Z" fill="black"/>
<path d="M946.993 287.467H936.471V298.101H946.993V287.467Z" fill="black"/>
<path d="M936.47 287.467H925.948V298.101H936.47V287.467Z" fill="black"/>
<path d="M925.948 287.467H915.426V298.101H925.948V287.467Z" fill="black"/>
<path d="M704.983 287.467H694.461V298.101H704.983V287.467Z" fill="black"/>
<path d="M568.195 287.467H557.673V298.101H568.195V287.467Z" fill="black"/>
<path d="M557.673 287.467H547.151V298.101H557.673V287.467Z" fill="black"/>
<path d="M547.151 287.467H536.629V298.101H547.151V287.467Z" fill="black"/>
<path d="M473.496 287.467H462.974V298.101H473.496V287.467Z" fill="black"/>
<path d="M368.275 287.467H357.753V298.101H368.275V287.467Z" fill="black"/>
<path d="M136.788 287.467H126.266V298.101H136.788V287.467Z" fill="black"/>
<path d="M42.0883 287.467H31.5662V298.101H42.0883V287.467Z" fill="black"/>
<path d="M21.0443 287.467H10.5222V298.101H21.0443V287.467Z" fill="black"/>
<path d="M957.515 276.794H946.992V287.428H957.515V276.794Z" fill="black"/>
<path d="M946.993 276.794H936.471V287.428H946.993V276.794Z" fill="black"/>
<path d="M936.47 276.794H925.948V287.428H936.47V276.794Z" fill="black"/>
<path d="M715.506 276.794H704.983V287.428H715.506V276.794Z" fill="black"/>
<path d="M568.195 276.794H557.673V287.428H568.195V276.794Z" fill="black"/>
<path d="M557.673 276.794H547.151V287.428H557.673V276.794Z" fill="black"/>
<path d="M547.151 276.794H536.629V287.428H547.151V276.794Z" fill="black"/>
<path d="M473.496 276.794H462.974V287.428H473.496V276.794Z" fill="black"/>
<path d="M368.275 276.794H357.753V287.428H368.275V276.794Z" fill="black"/>
<path d="M147.31 276.794H136.788V287.428H147.31V276.794Z" fill="black"/>
<path d="M957.515 266.16H946.992V276.794H957.515V266.16Z" fill="black"/>
<path d="M946.993 266.16H936.471V276.794H946.993V266.16Z" fill="black"/>
<path d="M715.506 266.16H704.983V276.794H715.506V266.16Z" fill="black"/>
<path d="M568.195 266.16H557.673V276.794H568.195V266.16Z" fill="black"/>
<path d="M557.673 266.16H547.151V276.794H557.673V266.16Z" fill="black"/>
<path d="M547.151 266.16H536.629V276.794H547.151V266.16Z" fill="black"/>
<path d="M473.496 266.16H462.974V276.794H473.496V266.16Z" fill="black"/>
<path d="M357.753 266.16H347.23V276.794H357.753V266.16Z" fill="black"/>
<path d="M157.832 266.16H147.31V276.794H157.832V266.16Z" fill="black"/>
<path d="M31.5666 266.16H21.0444V276.794H31.5666V266.16Z" fill="black"/>
<path d="M968.036 255.526H957.514V266.16H968.036V255.526Z" fill="black"/>
<path d="M957.515 255.526H946.992V266.16H957.515V255.526Z" fill="black"/>
<path d="M946.993 255.526H936.471V266.16H946.993V255.526Z" fill="black"/>
<path d="M715.506 255.526H704.983V266.16H715.506V255.526Z" fill="black"/>
<path d="M568.195 255.526H557.673V266.16H568.195V255.526Z" fill="black"/>
<path d="M557.673 255.526H547.151V266.16H557.673V255.526Z" fill="black"/>
<path d="M547.151 255.526H536.629V266.16H547.151V255.526Z" fill="black"/>
<path d="M473.496 255.526H462.974V266.16H473.496V255.526Z" fill="black"/>
<path d="M357.753 255.526H347.23V266.16H357.753V255.526Z" fill="black"/>
<path d="M168.354 255.526H157.832V266.16H168.354V255.526Z" fill="black"/>
<path d="M31.5666 255.526H21.0444V266.16H31.5666V255.526Z" fill="black"/>
<path d="M978.559 244.853H968.037V255.487H978.559V244.853Z" fill="black"/>
<path d="M968.036 244.853H957.514V255.487H968.036V244.853Z" fill="black"/>
<path d="M957.515 244.853H946.992V255.487H957.515V244.853Z" fill="black"/>
<path d="M726.027 244.853H715.505V255.487H726.027V244.853Z" fill="black"/>
<path d="M568.195 244.853H557.673V255.487H568.195V244.853Z" fill="black"/>
<path d="M557.673 244.853H547.151V255.487H557.673V244.853Z" fill="black"/>
<path d="M547.151 244.853H536.629V255.487H547.151V244.853Z" fill="black"/>
<path d="M347.231 244.853H336.709V255.487H347.231V244.853Z" fill="black"/>
<path d="M189.399 244.853H178.876V255.487H189.399V244.853Z" fill="black"/>
<path d="M178.876 244.853H168.354V255.487H178.876V244.853Z" fill="black"/>
<path d="M42.0883 244.853H31.5662V255.487H42.0883V244.853Z" fill="black"/>
<path d="M978.559 234.219H968.037V244.853H978.559V234.219Z" fill="black"/>
<path d="M968.036 234.219H957.514V244.853H968.036V234.219Z" fill="black"/>
<path d="M726.027 234.219H715.505V244.853H726.027V234.219Z" fill="black"/>
<path d="M568.195 234.219H557.673V244.853H568.195V234.219Z" fill="black"/>
<path d="M557.673 234.219H547.151V244.853H557.673V234.219Z" fill="black"/>
<path d="M547.151 234.219H536.629V244.853H547.151V234.219Z" fill="black"/>
<path d="M462.974 234.219H452.452V244.853H462.974V234.219Z" fill="black"/>
<path d="M336.708 234.219H326.186V244.853H336.708V234.219Z" fill="black"/>
<path d="M326.186 234.219H315.664V244.853H326.186V234.219Z" fill="black"/>
<path d="M220.965 234.219H210.443V244.853H220.965V234.219Z" fill="black"/>
<path d="M210.443 234.219H199.92V244.853H210.443V234.219Z" fill="black"/>
<path d="M199.92 234.219H189.398V244.853H199.92V234.219Z" fill="black"/>
<path d="M42.0883 234.219H31.5662V244.853H42.0883V234.219Z" fill="black"/>
<path d="M989.081 223.585H978.559V234.219H989.081V223.585Z" fill="black"/>
<path d="M978.559 223.585H968.037V234.219H978.559V223.585Z" fill="black"/>
<path d="M736.55 223.585H726.028V234.219H736.55V223.585Z" fill="black"/>
<path d="M726.027 223.585H715.505V234.219H726.027V223.585Z" fill="black"/>
<path d="M568.195 223.585H557.673V234.219H568.195V223.585Z" fill="black"/>
<path d="M557.673 223.585H547.151V234.219H557.673V223.585Z" fill="black"/>
<path d="M547.151 223.585H536.629V234.219H547.151V223.585Z" fill="black"/>
<path d="M536.629 223.585H526.107V234.219H536.629V223.585Z" fill="black"/>
<path d="M462.974 223.585H452.452V234.219H462.974V223.585Z" fill="black"/>
<path d="M305.142 223.585H294.62V234.219H305.142V223.585Z" fill="black"/>
<path d="M294.62 223.585H284.098V234.219H294.62V223.585Z" fill="black"/>
<path d="M284.098 223.585H273.576V234.219H284.098V223.585Z" fill="black"/>
<path d="M273.576 223.585H263.053V234.219H273.576V223.585Z" fill="black"/>
<path d="M263.053 223.585H252.531V234.219H263.053V223.585Z" fill="black"/>
<path d="M252.531 223.585H242.009V234.219H252.531V223.585Z" fill="black"/>
<path d="M242.009 223.585H231.487V234.219H242.009V223.585Z" fill="black"/>
<path d="M52.6105 223.585H42.0884V234.219H52.6105V223.585Z" fill="black"/>
<path d="M999.604 212.912H989.082V223.546H999.604V212.912Z" fill="black"/>
<path d="M989.081 212.912H978.559V223.546H989.081V212.912Z" fill="black"/>
<path d="M736.55 212.912H726.028V223.546H736.55V212.912Z" fill="black"/>
<path d="M557.673 212.912H547.151V223.546H557.673V212.912Z" fill="black"/>
<path d="M547.151 212.912H536.629V223.546H547.151V212.912Z" fill="black"/>
<path d="M536.629 212.912H526.107V223.546H536.629V212.912Z" fill="black"/>
<path d="M452.452 212.912H441.93V223.546H452.452V212.912Z" fill="black"/>
<path d="M63.133 212.912H52.6108V223.546H63.133V212.912Z" fill="black"/>
<path d="M1010.13 202.278H999.603V212.912H1010.13V202.278Z" fill="black"/>
<path d="M999.604 202.278H989.082V212.912H999.604V202.278Z" fill="black"/>
<path d="M989.081 202.278H978.559V212.912H989.081V202.278Z" fill="black"/>
<path d="M736.55 202.278H726.028V212.912H736.55V202.278Z" fill="black"/>
<path d="M557.673 202.278H547.151V212.912H557.673V202.278Z" fill="black"/>
<path d="M547.151 202.278H536.629V212.912H547.151V202.278Z" fill="black"/>
<path d="M536.629 202.278H526.107V212.912H536.629V202.278Z" fill="black"/>
<path d="M452.452 202.278H441.93V212.912H452.452V202.278Z" fill="black"/>
<path d="M63.133 202.278H52.6108V212.912H63.133V202.278Z" fill="black"/>
<path d="M1010.13 191.645H999.603V202.278H1010.13V191.645Z" fill="black"/>
<path d="M999.604 191.645H989.082V202.278H999.604V191.645Z" fill="black"/>
<path d="M736.55 191.645H726.028V202.278H736.55V191.645Z" fill="black"/>
<path d="M557.673 191.645H547.151V202.278H557.673V191.645Z" fill="black"/>
<path d="M547.151 191.645H536.629V202.278H547.151V191.645Z" fill="black"/>
<path d="M536.629 191.645H526.107V202.278H536.629V191.645Z" fill="black"/>
<path d="M441.93 191.645H431.408V202.278H441.93V191.645Z" fill="black"/>
<path d="M73.6552 191.645H63.1331V202.278H73.6552V191.645Z" fill="black"/>
<path d="M1020.65 180.972H1010.12V191.605H1020.65V180.972Z" fill="black"/>
<path d="M1010.13 180.972H999.603V191.605H1010.13V180.972Z" fill="black"/>
<path d="M736.55 180.972H726.028V191.605H736.55V180.972Z" fill="black"/>
<path d="M557.673 180.972H547.151V191.605H557.673V180.972Z" fill="black"/>
<path d="M547.151 180.972H536.629V191.605H547.151V180.972Z" fill="black"/>
<path d="M536.629 180.972H526.107V191.605H536.629V180.972Z" fill="black"/>
<path d="M431.408 180.972H420.886V191.605H431.408V180.972Z" fill="black"/>
<path d="M94.6991 180.972H84.177V191.605H94.6991V180.972Z" fill="black"/>
<path d="M84.1772 180.972H73.655V191.605H84.1772V180.972Z" fill="black"/>
<path d="M1031.17 170.338H1020.65V180.971H1031.17V170.338Z" fill="black"/>
<path d="M1020.65 170.338H1010.12V180.971H1020.65V170.338Z" fill="black"/>
<path d="M736.55 170.338H726.028V180.971H736.55V170.338Z" fill="black"/>
<path d="M547.151 170.338H536.629V180.971H547.151V170.338Z" fill="black"/>
<path d="M536.629 170.338H526.107V180.971H536.629V170.338Z" fill="black"/>
<path d="M526.107 170.338H515.585V180.971H526.107V170.338Z" fill="black"/>
<path d="M420.886 170.338H410.364V180.971H420.886V170.338Z" fill="black"/>
<path d="M105.221 170.338H94.6992V180.971H105.221V170.338Z" fill="black"/>
<path d="M1041.69 159.704H1031.17V170.338H1041.69V159.704Z" fill="black"/>
<path d="M1031.17 159.704H1020.65V170.338H1031.17V159.704Z" fill="black"/>
<path d="M1020.65 159.704H1010.12V170.338H1020.65V159.704Z" fill="black"/>
<path d="M547.151 159.704H536.629V170.338H547.151V159.704Z" fill="black"/>
<path d="M536.629 159.704H526.107V170.338H536.629V159.704Z" fill="black"/>
<path d="M526.107 159.704H515.585V170.338H526.107V159.704Z" fill="black"/>
<path d="M410.363 159.704H399.841V170.338H410.363V159.704Z" fill="black"/>
<path d="M399.842 159.704H389.319V170.338H399.842V159.704Z" fill="black"/>
<path d="M126.266 159.704H115.744V170.338H126.266V159.704Z" fill="black"/>
<path d="M115.744 159.704H105.221V170.338H115.744V159.704Z" fill="black"/>
<path d="M31.5666 159.704H21.0444V170.338H31.5666V159.704Z" fill="black"/>
<path d="M1052.21 149.031H1041.69V159.664H1052.21V149.031Z" fill="black"/>
<path d="M1041.69 149.031H1031.17V159.664H1041.69V149.031Z" fill="black"/>
<path d="M1031.17 149.031H1020.65V159.664H1031.17V149.031Z" fill="black"/>
<path d="M547.151 149.031H536.629V159.664H547.151V149.031Z" fill="black"/>
<path d="M536.629 149.031H526.107V159.664H536.629V149.031Z" fill="black"/>
<path d="M526.107 149.031H515.585V159.664H526.107V149.031Z" fill="black"/>
<path d="M399.842 149.031H389.319V159.664H399.842V149.031Z" fill="black"/>
<path d="M389.319 149.031H378.797V159.664H389.319V149.031Z" fill="black"/>
<path d="M136.788 149.031H126.266V159.664H136.788V149.031Z" fill="black"/>
<path d="M126.266 149.031H115.744V159.664H126.266V149.031Z" fill="black"/>
<path d="M31.5666 149.031H21.0444V159.664H31.5666V149.031Z" fill="black"/>
<path d="M1052.21 138.397H1041.69V149.031H1052.21V138.397Z" fill="black"/>
<path d="M1041.69 138.397H1031.17V149.031H1041.69V138.397Z" fill="black"/>
<path d="M736.55 138.397H726.028V149.031H736.55V138.397Z" fill="black"/>
<path d="M536.629 138.397H526.107V149.031H536.629V138.397Z" fill="black"/>
<path d="M526.107 138.397H515.585V149.031H526.107V138.397Z" fill="black"/>
<path d="M515.585 138.397H505.062V149.031H515.585V138.397Z" fill="black"/>
<path d="M378.797 138.397H368.275V149.031H378.797V138.397Z" fill="black"/>
<path d="M368.275 138.397H357.753V149.031H368.275V138.397Z" fill="black"/>
<path d="M157.832 138.397H147.31V149.031H157.832V138.397Z" fill="black"/>
<path d="M147.31 138.397H136.788V149.031H147.31V138.397Z" fill="black"/>
<path d="M1062.74 127.763H1052.21V138.397H1062.74V127.763Z" fill="black"/>
<path d="M1052.21 127.763H1041.69V138.397H1052.21V127.763Z" fill="black"/>
<path d="M736.55 127.763H726.028V138.397H736.55V127.763Z" fill="black"/>
<path d="M526.107 127.763H515.585V138.397H526.107V127.763Z" fill="black"/>
<path d="M515.585 127.763H505.062V138.397H515.585V127.763Z" fill="black"/>
<path d="M347.231 127.763H336.709V138.397H347.231V127.763Z" fill="black"/>
<path d="M336.708 127.763H326.186V138.397H336.708V127.763Z" fill="black"/>
<path d="M326.186 127.763H315.664V138.397H326.186V127.763Z" fill="black"/>
<path d="M199.92 127.763H189.398V138.397H199.92V127.763Z" fill="black"/>
<path d="M189.399 127.763H178.876V138.397H189.399V127.763Z" fill="black"/>
<path d="M178.876 127.763H168.354V138.397H178.876V127.763Z" fill="black"/>
<path d="M42.0883 127.763H31.5662V138.397H42.0883V127.763Z" fill="black"/>
<path d="M1073.26 117.09H1062.74V127.724H1073.26V117.09Z" fill="black"/>
<path d="M1062.74 117.09H1052.21V127.724H1062.74V117.09Z" fill="black"/>
<path d="M515.585 117.09H505.062V127.724H515.585V117.09Z" fill="black"/>
<path d="M505.063 117.09H494.541V127.724H505.063V117.09Z" fill="black"/>
<path d="M305.142 117.09H294.62V127.724H305.142V117.09Z" fill="black"/>
<path d="M294.62 117.09H284.098V127.724H294.62V117.09Z" fill="black"/>
<path d="M284.098 117.09H273.576V127.724H284.098V117.09Z" fill="black"/>
<path d="M273.576 117.09H263.053V127.724H273.576V117.09Z" fill="black"/>
<path d="M263.053 117.09H252.531V127.724H263.053V117.09Z" fill="black"/>
<path d="M252.531 117.09H242.009V127.724H252.531V117.09Z" fill="black"/>
<path d="M242.009 117.09H231.487V127.724H242.009V117.09Z" fill="black"/>
<path d="M231.487 117.09H220.965V127.724H231.487V117.09Z" fill="black"/>
<path d="M220.965 117.09H210.443V127.724H220.965V117.09Z" fill="black"/>
<path d="M52.6105 117.09H42.0884V127.724H52.6105V117.09Z" fill="black"/>
<path d="M1083.78 106.456H1073.26V117.09H1083.78V106.456Z" fill="black"/>
<path d="M1073.26 106.456H1062.74V117.09H1073.26V106.456Z" fill="black"/>
<path d="M1062.74 106.456H1052.21V117.09H1062.74V106.456Z" fill="black"/>
<path d="M726.027 106.456H715.505V117.09H726.027V106.456Z" fill="black"/>
<path d="M515.585 106.456H505.062V117.09H515.585V106.456Z" fill="black"/>
<path d="M505.063 106.456H494.541V117.09H505.063V106.456Z" fill="black"/>
<path d="M494.54 106.456H484.018V117.09H494.54V106.456Z" fill="black"/>
<path d="M52.6105 106.456H42.0884V117.09H52.6105V106.456Z" fill="black"/>
<path d="M1094.3 95.8223H1083.78V106.456H1094.3V95.8223Z" fill="black"/>
<path d="M1083.78 95.8223H1073.26V106.456H1083.78V95.8223Z" fill="black"/>
<path d="M1073.26 95.8223H1062.74V106.456H1073.26V95.8223Z" fill="black"/>
<path d="M505.063 95.8223H494.541V106.456H505.063V95.8223Z" fill="black"/>
<path d="M494.54 95.8223H484.018V106.456H494.54V95.8223Z" fill="black"/>
<path d="M63.133 95.8223H52.6108V106.456H63.133V95.8223Z" fill="black"/>
<path d="M1104.82 85.1492H1094.3V95.7829H1104.82V85.1492Z" fill="black"/>
<path d="M1094.3 85.1492H1083.78V95.7829H1094.3V85.1492Z" fill="black"/>
<path d="M1083.78 85.1492H1073.26V95.7829H1083.78V85.1492Z" fill="black"/>
<path d="M494.54 85.1492H484.018V95.7829H494.54V85.1492Z" fill="black"/>
<path d="M484.018 85.1492H473.496V95.7829H484.018V85.1492Z" fill="black"/>
<path d="M63.133 85.1492H52.6108V95.7829H63.133V85.1492Z" fill="black"/>
<path d="M1115.35 74.5155H1104.82V85.1491H1115.35V74.5155Z" fill="black"/>
<path d="M1104.82 74.5155H1094.3V85.1491H1104.82V74.5155Z" fill="black"/>
<path d="M1094.3 74.5155H1083.78V85.1491H1094.3V74.5155Z" fill="black"/>
<path d="M484.018 74.5155H473.496V85.1491H484.018V74.5155Z" fill="black"/>
<path d="M473.496 74.5155H462.974V85.1491H473.496V74.5155Z" fill="black"/>
<path d="M84.1772 74.5155H73.655V85.1491H84.1772V74.5155Z" fill="black"/>
<path d="M73.6552 74.5155H63.1331V85.1491H73.6552V74.5155Z" fill="black"/>
<path d="M1125.87 63.8815H1115.35V74.5154H1125.87V63.8815Z" fill="black"/>
<path d="M1115.35 63.8815H1104.82V74.5154H1115.35V63.8815Z" fill="black"/>
<path d="M1104.82 63.8815H1094.3V74.5154H1104.82V63.8815Z" fill="black"/>
<path d="M1094.3 63.8815H1083.78V74.5154H1094.3V63.8815Z" fill="black"/>
<path d="M473.496 63.8815H462.974V74.5154H473.496V63.8815Z" fill="black"/>
<path d="M462.974 63.8815H452.452V74.5154H462.974V63.8815Z" fill="black"/>
<path d="M452.452 63.8815H441.93V74.5154H452.452V63.8815Z" fill="black"/>
<path d="M94.6991 63.8815H84.177V74.5154H94.6991V63.8815Z" fill="black"/>
<path d="M1125.87 53.2082H1115.35V63.8421H1125.87V53.2082Z" fill="black"/>
<path d="M1115.35 53.2082H1104.82V63.8421H1115.35V53.2082Z" fill="black"/>
<path d="M1104.82 53.2082H1094.3V63.8421H1104.82V53.2082Z" fill="black"/>
<path d="M462.974 53.2082H452.452V63.8421H462.974V53.2082Z" fill="black"/>
<path d="M452.452 53.2082H441.93V63.8421H452.452V53.2082Z" fill="black"/>
<path d="M105.221 53.2082H94.6992V63.8421H105.221V53.2082Z" fill="black"/>
<path d="M1136.39 42.5745H1125.87V53.2082H1136.39V42.5745Z" fill="black"/>
<path d="M1125.87 42.5745H1115.35V53.2082H1125.87V42.5745Z" fill="black"/>
<path d="M1115.35 42.5745H1104.82V53.2082H1115.35V42.5745Z" fill="black"/>
<path d="M452.452 42.5745H441.93V53.2082H452.452V42.5745Z" fill="black"/>
<path d="M441.93 42.5745H431.408V53.2082H441.93V42.5745Z" fill="black"/>
<path d="M431.408 42.5745H420.886V53.2082H431.408V42.5745Z" fill="black"/>
<path d="M115.744 42.5745H105.221V53.2082H115.744V42.5745Z" fill="black"/>
<path d="M1146.91 31.9409H1136.39V42.5746H1146.91V31.9409Z" fill="black"/>
<path d="M1136.39 31.9409H1125.87V42.5746H1136.39V31.9409Z" fill="black"/>
<path d="M1125.87 31.9409H1115.35V42.5746H1125.87V31.9409Z" fill="black"/>
<path d="M1115.35 31.9409H1104.82V42.5746H1115.35V31.9409Z" fill="black"/>
<path d="M431.408 31.9409H420.886V42.5746H431.408V31.9409Z" fill="black"/>
<path d="M420.886 31.9409H410.364V42.5746H420.886V31.9409Z" fill="black"/>
<path d="M410.363 31.9409H399.841V42.5746H410.363V31.9409Z" fill="black"/>
<path d="M136.788 31.9409H126.266V42.5746H136.788V31.9409Z" fill="black"/>
<path d="M410.363 21.2676H399.841V31.9013H410.363V21.2676Z" fill="black"/>
<path d="M399.842 21.2676H389.319V31.9013H399.842V21.2676Z" fill="black"/>
<path d="M389.319 21.2676H378.797V31.9013H389.319V21.2676Z" fill="black"/>
<path d="M168.354 21.2676H157.832V31.9013H168.354V21.2676Z" fill="black"/>
<path d="M157.832 21.2676H147.31V31.9013H157.832V21.2676Z" fill="black"/>
<path d="M147.31 21.2676H136.788V31.9013H147.31V21.2676Z" fill="black"/>
<path d="M378.797 10.634H368.275V21.2677H378.797V10.634Z" fill="black"/>
<path d="M368.275 10.634H357.753V21.2677H368.275V10.634Z" fill="black"/>
<path d="M357.753 10.634H347.23V21.2677H357.753V10.634Z" fill="black"/>
<path d="M347.231 10.634H336.709V21.2677H347.231V10.634Z" fill="black"/>
<path d="M199.92 10.634H189.398V21.2677H199.92V10.634Z" fill="black"/>
<path d="M189.399 10.634H178.876V21.2677H189.399V10.634Z" fill="black"/>
<path d="M178.876 10.634H168.354V21.2677H178.876V10.634Z" fill="black"/>
<path d="M347.231 0H336.709V10.6337H347.231V0Z" fill="black"/>
<path d="M336.708 0H326.186V10.6337H336.708V0Z" fill="black"/>
<path d="M326.186 0H315.664V10.6337H326.186V0Z" fill="black"/>
<path d="M315.664 0H305.142V10.6337H315.664V0Z" fill="black"/>
<path d="M305.142 0H294.62V10.6337H305.142V0Z" fill="black"/>
<path d="M294.62 0H284.098V10.6337H294.62V0Z" fill="black"/>
<path d="M284.098 0H273.576V10.6337H284.098V0Z" fill="black"/>
<path d="M273.576 0H263.053V10.6337H273.576V0Z" fill="black"/>
<path d="M263.053 0H252.531V10.6337H263.053V0Z" fill="black"/>
<path d="M252.531 0H242.009V10.6337H252.531V0Z" fill="black"/>
<path d="M242.009 0H231.487V10.6337H242.009V0Z" fill="black"/>
<path d="M231.487 0H220.965V10.6337H231.487V0Z" fill="black"/>
<path d="M220.965 0H210.443V10.6337H220.965V0Z" fill="black"/>
<path d="M210.443 0H199.92V10.6337H210.443V0Z" fill="black"/>
</svg>
